# xmcd
#
# Track frame offsets:
#	150
#	17707
#	27911
#	49278
#	55643
#	69837
#	76999
#	94061
#	100180
#	109700
#	120001
#	135481
#	149653
#	166811
#	180670
#	195602
#	212137
#
# Disc length: 3016 seconds
#
# Revision: 0
# Processed by: cddbd v1.5.1PL2 Copyright (c) Steve Scherf et al.
# Submitted via: EasyCDDAExtractor 8.0.2.1
#
DISCID=dc0bc611
DTITLE=The Complainer - Sponsored by Retro*Sex*Galaxy
DYEAR=2005
DGENRE=Electronic
TTITLE0=Photonew
TTITLE1=Elektroniszhe
TTITLE2=The Battle of The Sort-offs
TTITLE3=Noe Mial Niezle Kiedy Padalo
TTITLE4=Quotadelia/Cytadelie
TTITLE5=Dirty Flangamba
TTITLE6=Smiechy
TTITLE7=Perepere
TTITLE8=Hi-Fiasco
TTITLE9=Elritmomiksano
TTITLE10=Dabdab
TTITLE11=Sxdw
TTITLE12=Zgrzytzgryzfunk
TTITLE13=Please Don't Trash Me
TTITLE14=Porque Te Next
TTITLE15=Be My Boney M of Love
TTITLE16=Ja Walcze Walca
EXTD=
EXTT0=
EXTT1=
EXTT2=
EXTT3=
EXTT4=
EXTT5=
EXTT6=
EXTT7=
EXTT8=
EXTT9=
EXTT10=
EXTT11=
EXTT12=
EXTT13=
EXTT14=
EXTT15=
EXTT16=
PLAYORDER=
